<?xml version="1.0" encoding="UTF-8"?>
<svg width="16px" height="18px" viewBox="0 0 16 18" version="1.1" xmlns="http://www.w3.org/2000/svg" xmlns:xlink="http://www.w3.org/1999/xlink">
    <!-- Generator: Sketch 62 (91390) - https://sketch.com -->
    <title>B262EA82-9909-47D1-99E0-AE306ACF14C3</title>
    <desc>Created with Sketch.</desc>
    <g id="Music-Home" stroke="none" stroke-width="1" fill="none" fill-rule="evenodd" opacity="0.8">
        <g id="Music_home_Album-detail" transform="translate(-260.000000, -418.000000)" fill="#FFFFFF">
            <g id="播放歌曲" transform="translate(248.000000, 367.000000)">
                <g id="选中歌曲" transform="translate(0.000000, 34.000000)">
                    <path d="M28,25.8319684 L28,26.1628193 C27.9896269,26.1764351 27.9812725,26.1911649 27.9751403,26.20665 C27.9330749,26.3900402 27.8052612,26.5493006 27.6230954,26.6453103 C28.6852446,26.0709163 20.9582999,30.7222703 13.212911,34.9282481 C12.8959637,35.0608997 12.51893,35.0063952 12.2666399,34.791454 C12.1677766,34.6719324 12.0786723,34.5463688 12,34.415712 L12,17.5787223 C12.00973,17.5689249 12.0180774,17.5581241 12.0248597,17.5465562 C12.0727369,17.3904081 12.1820239,17.2543497 12.3331997,17.1626843 C12.4482759,17.1033008 12.5717723,17.0566423 12.691259,17.0050353 C13.0054179,16.9774929 13.3187763,17.0637477 13.5593424,17.2439831 C20.6563753,21.3916379 28.9751403,26.0412245 27.5128308,25.2957495 C27.7030338,25.3816758 27.8526023,25.5241732 27.9350441,25.698002 C27.9558941,25.7428931 27.978348,25.7874308 28,25.8319684 Z" id="矩形_48_拷贝_4备份"></path>
                </g>
            </g>
        </g>
    </g>
</svg>