<?xml version="1.0" encoding="UTF-8"?>
<svg width="62px" height="62px" viewBox="0 0 62 62" version="1.1" xmlns="http://www.w3.org/2000/svg" xmlns:xlink="http://www.w3.org/1999/xlink">
    <!-- Generator: Sketch 62 (91390) - https://sketch.com -->
    <title>FB2C0B0E-A321-4177-9CE2-FF826D37BA22</title>
    <desc>Created with Sketch.</desc>
    <g id="Symbols" stroke="none" stroke-width="1" fill="none" fill-rule="evenodd">
        <g id="btn/全屏播放/播放">
            <circle id="椭圆形" fill="#0052FE" cx="31" cy="31" r="31"></circle>
            <path d="M48,30.7199473 L48,31.2713655 C47.9824954,31.2940585 47.9683974,31.3186082 47.9580493,31.3444167 C47.887064,31.6500671 47.6713783,31.915501 47.3639735,32.0755171 C49.1563502,31.1181938 36.1171311,38.8704505 23.0467873,45.8804135 C22.5119388,46.1014995 21.8756944,46.0106587 21.4499549,45.6524233 C21.283123,45.4532206 21.1327594,45.243948 21,45.0261866 L21,16.9645371 C21.0164194,16.9482081 21.0305056,16.9302069 21.0419507,16.910927 C21.1227436,16.6506801 21.3071654,16.4239162 21.5622745,16.2711405 C21.7564655,16.172168 21.9648657,16.0944039 22.1664996,16.0083921 C22.6966427,15.9624882 23.225435,16.1062461 23.6313903,16.4066386 C35.6076333,23.3193964 49.6455493,31.0687076 47.177902,29.8262492 C47.4988696,29.9694596 47.7512665,30.2069553 47.8903869,30.4966701 C47.9255714,30.5714886 47.9634623,30.6457179 48,30.7199473 Z" id="矩形_48_拷贝_4" fill="#FFFFFF"></path>
        </g>
    </g>
</svg>