<?xml version="1.0" encoding="UTF-8"?>
<svg width="19px" height="15px" viewBox="0 0 19 15" version="1.1" xmlns="http://www.w3.org/2000/svg" xmlns:xlink="http://www.w3.org/1999/xlink">
    <!-- Generator: Sketch 62 (91390) - https://sketch.com -->
    <title>D0DF27AB-DCDF-4A28-9973-9A73F5B463E0</title>
    <desc>Created with Sketch.</desc>
    <g id="控件" stroke="none" stroke-width="1" fill="none" fill-rule="evenodd">
        <g id="btn_previous" transform="translate(0.000000, -2.000000)" fill="#FFFFFF">
            <g id="btn/全屏播放/上一首">
                <path d="M18.3333333,9.45108623 L18.3333333,9.71147817 C18.3252294,9.7221943 18.3187025,9.7337872 18.3139117,9.74597454 C18.2810481,9.89030944 18.1811937,10.0156533 18.0388766,10.0912164 C18.8686807,9.63914707 12.8320051,13.299935 6.78092004,16.6101953 C6.53330499,16.714597 6.23874741,16.6716999 6.04164578,16.5025332 C5.96440882,16.4084653 5.89479603,16.3096421 5.83333333,16.2068103 L5.83333333,2.95547587 C5.8409349,2.94776494 5.84745631,2.93926436 5.85275495,2.93015999 C5.89015905,2.8072656 5.97553954,2.70018267 6.09364558,2.62803857 C6.18354885,2.58130156 6.28003041,2.54457962 6.37337944,2.50396293 C6.61881605,2.48228607 6.86362733,2.55017177 7.0515696,2.69202377 C12.5961265,5.95638165 19.0951617,9.61577857 17.9527324,9.02906212 C18.1013285,9.09668926 18.2181789,9.20884001 18.2825865,9.34564975 C18.2988756,9.38098071 18.3164177,9.41603347 18.3333333,9.45108623 Z" id="矩形_48_拷贝_4" transform="translate(12.083333, 9.583333) scale(-1, 1) translate(-12.083333, -9.583333) "></path>
                <rect id="矩形" x="0.833333333" y="2.5" width="3.33333333" height="14.1666667" rx="1"></rect>
            </g>
        </g>
    </g>
</svg>