<?xml version="1.0" encoding="UTF-8"?>
<svg width="20px" height="20px" viewBox="0 0 20 20" version="1.1" xmlns="http://www.w3.org/2000/svg" xmlns:xlink="http://www.w3.org/1999/xlink">
    <!-- Generator: Sketch 62 (91390) - https://sketch.com -->
    <title>52AD8719-0472-4EB5-AAC5-7581A16E803C</title>
    <desc>Created with Sketch.</desc>
    <g id="Symbols" stroke="none" stroke-width="1" fill="none" fill-rule="evenodd">
        <g id="btn/全屏播放/下载/default">
            <path d="M14.7451689,0.5 L17.6000166,0.5 L17.6000166,0.5 C18.6493485,0.5 19.5,1.35065898 19.5,2.4 L19.5,17.6 C19.5,18.649341 18.6493485,19.5 17.6000166,19.5 L2.40014813,19.5 C1.35081619,19.5 0.5,18.649341 0.5,17.6 L0.5,2.59834976 C0.500006448,2.42833283 0.52168548,2.25900978 0.56451907,2.09447698 C0.841250823,1.03149233 1.57615001,0.5 2.76921664,0.5 C3.60474999,0.5 4.44028334,0.5 5.2758167,0.5 L5.2758167,0.5" id="矩形" stroke="#FFFFFF" stroke-linecap="round"></path>
            <path d="M10.0464738,5 C10.3226162,5 10.5464738,5.22385763 10.5464738,5.5 L10.5462003,12.329 L13.2083594,9.66881624 C13.4036216,9.4735541 13.7202041,9.4735541 13.9154662,9.66881624 C14.1107283,9.86407839 14.1107283,10.1806609 13.9154662,10.375923 L10.3799323,13.9114569 C10.2422474,14.0491418 10.0442414,14.0897412 9.87098255,14.0332551 C9.78533618,14.0109546 9.70412783,13.9669608 9.6371808,13.9000138 L6.1016469,10.3644799 C5.90638475,10.1692177 5.90638475,9.85263525 6.1016469,9.65737311 C6.29690904,9.46211096 6.61349153,9.46211096 6.80875368,9.65737311 L9.54620029,12.395 L9.54647382,5.5 C9.54647382,5.22385763 9.77033144,5 10.0464738,5 Z" id="形状结合" fill-opacity="0.5" fill="#FFFFFF"></path>
        </g>
    </g>
</svg>