<?xml version="1.0" encoding="iso-8859-1"?>
<!-- Generator: Adobe Illustrator 19.0.0, SVG Export Plug-In . SVG Version: 6.00 Build 0)  -->
<svg version="1.1" id="Layer_1" xmlns="http://www.w3.org/2000/svg" xmlns:xlink="http://www.w3.org/1999/xlink" x="0px" y="0px"
	 viewBox="0 0 500.551 500.551" style="enable-background:new 0 0 500.551 500.551;" xml:space="preserve">
<g>
	<path style="fill:#6D2C93;" d="M160.276,77.934v280.061c-13.689-7.868-30.001-12.444-47.5-12.444v155
		c48.248,0,87.5-34.766,87.5-77.5V179.244l235-58.141v168.855c-13.689-7.868-30.001-12.444-47.5-12.444v155
		c48.248,0,87.5-34.766,87.5-77.5V0L160.276,77.934z M200.276,138.038v-28.794l235-58.141v28.794L200.276,138.038z"/>
	<path style="fill:#933EC5;" d="M300.276,355.014c0,42.734,39.252,77.5,87.5,77.5v-155
		C339.528,277.514,300.276,312.28,300.276,355.014z"/>
	<path style="fill:#933EC5;" d="M25.276,423.051c0,42.734,39.252,77.5,87.5,77.5v-155C64.528,345.551,25.276,380.317,25.276,423.051
		z"/>
</g>
<g>
</g>
<g>
</g>
<g>
</g>
<g>
</g>
<g>
</g>
<g>
</g>
<g>
</g>
<g>
</g>
<g>
</g>
<g>
</g>
<g>
</g>
<g>
</g>
<g>
</g>
<g>
</g>
<g>
</g>
</svg>
